<mxfile host="app.diagrams.net" modified="2022-04-30T19:13:09.555Z" agent="5.0 (Windows NT 10.0; Win64; x64) AppleWebKit/537.36 (KHTML, like Gecko) Chrome/101.0.4951.41 Safari/537.36" etag="t9-plqGuQeT0l62YyGCt" version="17.5.0" type="github">
  <diagram id="I4RxQcAeR0-bLmFs0aKR" name="Class Systems">
    <mxGraphModel dx="2370" dy="1257" grid="1" gridSize="10" guides="1" tooltips="1" connect="1" arrows="1" fold="1" page="1" pageScale="1" pageWidth="2400" pageHeight="1600" background="#182E3E" math="0" shadow="0">
      <root>
        <mxCell id="0" />
        <mxCell id="1" parent="0" />
        <mxCell id="AY53dQYHmzkXA3-5KKEI-1" value="CLASSES" style="rounded=0;whiteSpace=wrap;html=1;strokeColor=none;fontFamily=Helvetica;fontStyle=1;fontSize=20;fillColor=#EEEEEE;fontColor=#1A1A1A;" parent="1" vertex="1">
          <mxGeometry x="1140" y="80" width="120" height="60" as="geometry" />
        </mxCell>
        <mxCell id="AY53dQYHmzkXA3-5KKEI-2" value="Mage" style="whiteSpace=wrap;html=1;fontSize=20;strokeColor=none;rounded=0;fontStyle=1;fillColor=#EEEEEE;fontColor=#1A1A1A;" parent="1" vertex="1">
          <mxGeometry x="420" y="220" width="120" height="60" as="geometry" />
        </mxCell>
        <mxCell id="AY53dQYHmzkXA3-5KKEI-4" value="Warrior" style="whiteSpace=wrap;html=1;fontSize=20;strokeColor=none;rounded=0;fontStyle=1;fillColor=#EEEEEE;fontColor=#1A1A1A;" parent="1" vertex="1">
          <mxGeometry x="900" y="220" width="120" height="60" as="geometry" />
        </mxCell>
        <mxCell id="AY53dQYHmzkXA3-5KKEI-6" value="Priest" style="whiteSpace=wrap;html=1;fontSize=20;strokeColor=none;rounded=0;fontStyle=1;fillColor=#EEEEEE;fontColor=#1A1A1A;" parent="1" vertex="1">
          <mxGeometry x="1860" y="220" width="120" height="60" as="geometry" />
        </mxCell>
        <mxCell id="AY53dQYHmzkXA3-5KKEI-9" value="Rogue" style="whiteSpace=wrap;html=1;fontSize=20;fillColor=#EEEEEE;strokeColor=none;fontColor=#1A1A1A;rounded=0;fontStyle=1;" parent="1" vertex="1">
          <mxGeometry x="1380" y="220" width="120" height="60" as="geometry" />
        </mxCell>
        <mxCell id="AY53dQYHmzkXA3-5KKEI-11" value="Text" style="text;html=1;align=center;verticalAlign=middle;resizable=0;points=[];autosize=1;strokeColor=none;fillColor=none;fontColor=#1A1A1A;" parent="1" vertex="1">
          <mxGeometry x="1590" y="350" width="40" height="20" as="geometry" />
        </mxCell>
        <mxCell id="tYSj36wMg1A5TvZ68b_3-1" value="" style="shape=image;verticalLabelPosition=bottom;labelBackgroundColor=default;verticalAlign=top;aspect=fixed;imageAspect=0;image=data:image/png,iVBORw0KGgoAAAANSUhEUgAAA+gAAAPoCAYAAABNo9TkAAAABGdBTUEAALGPC/xhBQAACklpQ0NQc1JHQiBJRUM2MTk2Ni0yLjEAAEiJnVN3WJP3Fj7f92UPVkLY8LGXbIEAIiOsCMgQWaIQkgBhhBASQMWFiApWFBURnEhVxILVCkidiOKgKLhnQYqIWotVXDjuH9yntX167+3t+9f7vOec5/zOec8PgBESJpHmomoAOVKFPDrYH49PSMTJvYACFUjgBCAQ5svCZwXFAADwA3l4fnSwP/wBr28AAgBw1S4kEsfh/4O6UCZXACCRAOAiEucLAZBSAMguVMgUAMgYALBTs2QKAJQAAGx5fEIiAKoNAOz0ST4FANipk9wXANiiHKkIAI0BAJkoRyQCQLsAYFWBUiwCwMIAoKxAIi4EwK4BgFm2MkcCgL0FAHaOWJAPQGAAgJlCLMwAIDgCAEMeE80DIEwDoDDSv+CpX3CFuEgBAMDLlc2XS9IzFLiV0Bp38vDg4iHiwmyxQmEXKRBmCeQinJebIxNI5wNMzgwAABr50cH+OD+Q5+bk4eZm52zv9MWi/mvwbyI+IfHf/ryMAgQAEE7P79pf5eXWA3DHAbB1v2upWwDaVgBo3/ldM9sJoFoK0Hr5i3k4/EAenqFQyDwdHAoLC+0lYqG9MOOLPv8z4W/gi372/EAe/tt68ABxmkCZrcCjg/1xYW52rlKO58sEQjFu9+cj/seFf/2OKdHiNLFcLBWK8ViJuFAiTcd5uVKRRCHJleIS6X8y8R+W/QmTdw0ArIZPwE62B7XLbMB+7gECiw5Y0nYAQH7zLYwaC5EAEGc0Mnn3AACTv/mPQCsBAM2XpOMAALzoGFyolBdMxggAAESggSqwQQcMwRSswA6cwR28wBcCYQZEQAwkwDwQQgbkgBwKoRiWQRlUwDrYBLWwAxqgEZrhELTBMTgN5+ASXIHrcBcGYBiewhi8hgkEQcgIE2EhOogRYo7YIs4IF5mOBCJhSDSSgKQg6YgUUSLFyHKkAqlCapFdSCPyLXIUOY1cQPqQ28ggMor8irxHMZSBslED1AJ1QLmoHxqKxqBz0XQ0D12AlqJr0Rq0Hj2AtqKn0UvodXQAfYqOY4DRMQ5mjNlhXIyHRWCJWBomxxZj5Vg1Vo81Yx1YN3YVG8CeYe8IJAKLgBPsCF6EEMJsgpCQR1hMWEOoJewjtBK6CFcJg4Qxwicik6hPtCV6EvnEeGI6sZBYRqwm7iEeIZ4lXicOE1+TSCQOyZLkTgohJZAySQtJa0jbSC2kU6Q+0hBpnEwm65Btyd7kCLKArCCXkbeQD5BPkvvJw+S3FDrFiOJMCaIkUqSUEko1ZT/lBKWfMkKZoKpRzame1AiqiDqfWkltoHZQL1OHqRM0dZolzZsWQ8ukLaPV0JppZ2n3aC/pdLoJ3YMeRZfQl9Jr6Afp5+mD9HcMDYYNg8dIYigZaxl7GacYtxkvmUymBdOXmchUMNcyG5lnmA+Yb1VYKvYqfBWRyhKVOpVWlX6V56pUVXNVP9V5qgtUq1UPq15WfaZGVbNQ46kJ1Bar1akdVbupNq7OUndSj1DPUV+jvl/9gvpjDbKGhUaghkijVGO3xhmNIRbGMmXxWELWclYD6yxrmE1iW7L57Ex2Bfsbdi97TFNDc6pmrGaRZp3mcc0BDsax4PA52ZxKziHODc57LQMtPy2x1mqtZq1+rTfaetq+2mLtcu0W7eva73VwnUCdLJ31Om0693UJuja6UbqFutt1z+o+02PreekJ9cr1Dund0Uf1bfSj9Rfq79bv0R83MDQINpAZbDE4Y/DMkGPoa5hpuNHwhOGoEctoupHEaKPRSaMnuCbuh2fjNXgXPmasbxxirDTeZdxrPGFiaTLbpMSkxeS+Kc2Ua5pmutG003TMzMgs3KzYrMnsjjnVnGueYb7ZvNv8jYWlRZzFSos2i8eW2pZ8ywWWTZb3rJhWPlZ5VvVW16xJ1lzrLOtt1ldsUBtXmwybOpvLtqitm63Edptt3xTiFI8p0in1U27aMez87ArsmuwG7Tn2YfYl9m32zx3MHBId1jt0O3xydHXMdmxwvOuk4TTDqcSpw+lXZxtnoXOd8zUXpkuQyxKXdpcXU22niqdun3rLleUa7rrStdP1o5u7m9yt2W3U3cw9xX2r+00umxvJXcM970H08PdY4nHM452nm6fC85DnL152Xlle+70eT7OcJp7WMG3I28Rb4L3Le2A6Pj1l+s7pAz7GPgKfep+Hvqa+It89viN+1n6Zfgf8nvs7+sv9j/i/4XnyFvFOBWABwQHlAb2BGoGzA2sDHwSZBKUHNQWNBbsGLww+FUIMCQ1ZH3KTb8AX8hv5YzPcZyya0RXKCJ0VWhv6MMwmTB7WEY6GzwjfEH5vpvlM6cy2CIjgR2yIuB9pGZkX+X0UKSoyqi7qUbRTdHF09yzWrORZ+2e9jvGPqYy5O9tqtnJ2Z6xqbFJsY+ybuIC4qriBeIf4RfGXEnQTJAntieTE2MQ9ieNzAudsmjOc5JpUlnRjruXcorkX5unOy553PFk1WZB8OIWYEpeyP+WDIEJQLxhP5aduTR0T8oSbhU9FvqKNolGxt7hKPJLmnVaV9jjdO31D+miGT0Z1xjMJT1IreZEZkrkj801WRNberM/ZcdktOZSclJyjUg1plrQr1zC3KLdPZisrkw3keeZtyhuTh8r35CP5c/PbFWyFTNGjtFKuUA4WTC+oK3hbGFt4uEi9SFrUM99m/ur5IwuCFny9kLBQuLCz2Lh4WfHgIr9FuxYji1MXdy4xXVK6ZHhp8NJ9y2jLspb9UOJYUlXyannc8o5Sg9KlpUMrglc0lamUycturvRauWMVYZVkVe9ql9VbVn8qF5VfrHCsqK74sEa45uJXTl/VfPV5bdra3kq3yu3rSOuk626s91m/r0q9akHV0IbwDa0b8Y3lG19tSt50oXpq9Y7NtM3KzQM1YTXtW8y2rNvyoTaj9nqdf13LVv2tq7e+2Sba1r/dd3vzDoMdFTve75TsvLUreFdrvUV99W7S7oLdjxpiG7q/5n7duEd3T8Wej3ulewf2Re/ranRvbNyvv7+yCW1SNo0eSDpw5ZuAb9qb7Zp3tXBaKg7CQeXBJ9+mfHvjUOihzsPcw83fmX+39QjrSHkr0jq/dawto22gPaG97+iMo50dXh1Hvrf/fu8x42N1xzWPV56gnSg98fnkgpPjp2Snnp1OPz3Umdx590z8mWtdUV29Z0PPnj8XdO5Mt1/3yfPe549d8Lxw9CL3Ytslt0utPa49R35w/eFIr1tv62X3y+1XPK509E3rO9Hv03/6asDVc9f41y5dn3m978bsG7duJt0cuCW69fh29u0XdwruTNxdeo94r/y+2v3qB/oP6n+0/rFlwG3g+GDAYM/DWQ/vDgmHnv6U/9OH4dJHzEfVI0YjjY+dHx8bDRq98mTOk+GnsqcTz8p+Vv9563Or59/94vtLz1j82PAL+YvPv655qfNy76uprzrHI8cfvM55PfGm/K3O233vuO+638e9H5ko/ED+UPPR+mPHp9BP9z7nfP78L/eE8/stRzjPAAAAIGNIUk0AAHomAACAhAAA+gAAAIDoAAB1MAAA6mAAADqYAAAXcJy6UTwAAAAJcEhZcwAACxMAAAsTAQCanBgAABq4SURBVHic7dkxi1yHGYbRGe/0sgIpzIJhmxQpHLZy6cWQQiGtwSAbVARXLgRRY4hUOKQUuHClqHCQAwlpg90ZmxCDqnSqAoKFjYsUK7dG45vf4EQ730PuOb/gXe7OzH34tsuybAD+X52cnKzyS+74+Hh6wpiLi4vpCcDV204PmPD06dPpCcAVe2l6AAAAACDQAQAAIEGgAwAAQIBABwAAgACBDgAAAAECHQAAAAIEOgAAAAQIdAAAAAgQ6AAAABAg0AEAACBAoAMAAECAQAcAAIAAgQ4AAAABAh0AAAACBDoAAAAECHQAAAAIEOgAAAAQINABAAAgQKADAABAgEAHAACAAIEOAAAAAQIdAAAAAgQ6AAAABAh0AAAACBDoAAAAECDQAQAAIECgAwAAQIBABwAAgACBDgAAAAECHQAAAAIEOgAAAAQIdAAAAAgQ6AAAABAg0AEAACBAoAMAAECAQAcAAIAAgQ4AAAABAh0AAAACBDoAAAAECHQAAAAIEOgAAAAQINABAAAgQKADAABAgEAHAACAAIEOAAAAAQIdAAAAAgQ6AAAABAh0AAAACBDoAAAAECDQAQAAIECgAwAAQIBABwAAgACBDgAAAAECHQAAAAIEOgAAAAQIdAAAAAgQ6AAAABAg0AEAACBAoAMAAECAQAcAAIAAgQ4AAAAB22VZpjcAV+zk5GS1H/Tj4+PpCXAQFxcX0xPgYM7Pz6cnjNjv99vpDcDVckEHAACAAIEOAAAAAQIdAAAAAgQ6AAAABAh0AAAACBDoAAAAECDQAQAAIECgAwAAQIBABwAAgACBDgAAAAECHQAAAAIEOgAAAAQIdAAAAAgQ6AAAABAg0AEAACBAoAMAAECAQAcAAIAAgQ4AAAABAh0AAAACBDoAAAAECHQAAAAIEOgAAAAQINABAAAgQKADAABAgEAHAACAAIEOAAAAAQIdAAAAAgQ6AAAABAh0AAAACBDoAAAAECDQAQAAIECgAwAAQIBABwAAgACBDgAAAAECHQAAAAIEOgAAAAQIdAAAAAgQ6AAAABAg0AEAACBAoAMAAECAQAcAAIAAgQ4AAAABAh0AAAACBDoAAAAECHQAAAAIEOgAAAAQINABAAAgQKADAABAgEAHAACAAIEOAAAAAQIdAAAAAgQ6AAAABAh0AAAACBDoAAAAECDQAQAAIECgAwAAQIBABwAAgACBDgAAAAECHQAAAAIEOgAAAAQIdAAAAAgQ6AAAABAg0AEAACBAoAMAAECAQAcAAIAAgQ4AAAABAh0AAAACBDoAAAAECHQAAAAIEOgAAAAQINABAAAgQKADAABAgEAHAACAAIEOAAAAAQIdAAAAAgQ6AAAABAh0AAAACBDoAAAAECDQAQAAIECgAwAAQIBABwAAgACBDgAAAAECHQAAAAIEOgAAAAQIdAAAAAgQ6AAAABAg0AEAACBAoAMAAECAQAcAAIAAgQ4AAAABAh0AAAACBDoAAAAECHQAAAAIEOgAAAAQINABAAAgQKADAABAgEAHAACAAIEOAAAAAQIdAAAAAgQ6AAAABAh0AAAACBDoAAAAECDQAQAAIECgAwAAQIBABwAAgACBDgAAAAECHQAAAAIEOgAAAAQIdAAAAAgQ6AAAABAg0AEAACBAoAMAAECAQAcAAIAAgQ4AAAABAh0AAAACBDoAAAAECHQAAAAIEOgAAAAQINABAAAgQKADAABAgEAHAACAAIEOAAAAAQIdAAAAAgQ6AAAABOymBwAA8MOdn59PTwDgBXNBBwAAgACBDgAAAAECHQAAAAIEOgAAAAQIdAAAAAgQ6AAAABAg0AEAACBAoAMAAECAQAcAAIAAgQ4AAAABAh0AAAACBDoAAAAECHQAAAAIEOgAAAAQINABAAAgQKADAABAgEAHAACAAIEOAAAAAQIdAAAAAgQ6AAAABAh0AAAACBDoAAAAECDQAQAAIECgAwAAQIBABwAAgACBDgAAAAECHQAAAAIEOgAAAAQIdAAAAAgQ6AAAABAg0AEAACBAoAMAAECAQAcAAIAAgQ4AAAABAh0AAAACBDoAAAAECHQAAAAIEOgAAAAQINABAAAgQKADAABAgEAHAACAAIEOAAAAAQIdAAAAAgQ6AAAABAh0AAAACBDoAAAAECDQAQAAIECgAwAAQIBABwAAgACBDgAAAAECHQAAAAIEOgAAAAQIdAAAAAgQ6AAAABAg0AEAACBAoAMAAECAQAcAAIAAgQ4AAAABAh0AAAACBDoAAAAECHQAAAAIEOgAAAAQsJseAMCL9/aTG9MTxvzpp59PTwAA+K+4oAMAAECAQAcAAIAAgQ4AAAABAh0AAAACBDoAAAAECHQAAAAIEOgAAAAQINABAAAgQKADAABAgEAHAACAAIEOAAAAAQIdAAAAAgQ6AAAABAh0AAAACBDoAAAAECDQAQAAIECgAwAAQIBABwAAgACBDgAAAAECHQAAAAIEOgAAAAQIdAAAAAgQ6AAAABAg0AEAACBAoAMAAECAQAcAAIAAgQ4AAAABAh0AAAACBDoAAAAECHQAAAAIEOgAAAAQINABAAAgQKADAABAgEAHAACAAIEOAAAAAQIdAAAAAgQ6AAAABAh0AAAACBDoAAAAECDQAQAAIECgAwAAQIBABwAAgACBDgAAAAECHQAAAAIEOgAAAAQIdAAAAAgQ6AAAABAg0AEAACBAoAMAAECAQAcAAIAAgQ4AAAABAh0AAAACBDoAAAAECHQAAAAIEOgAAAAQINABAAAgQKADAABAgEAHAACAAIEOAAAAAQIdAAAAAgQ6AAAABOymBwBcpbef3JieMOL25b3pCWM+evLh9IQR9689nJ4AAPyPXNABAAAgQKADAABAgEAHAACAAIEOAAAAAQIdAAAAAgQ6AAAABAh0AAAACBDoAAAAECDQAQAAIECgAwAAQIBABwAAgACBDgAAAAECHQAAAAIEOgAAAAQIdAAAAAgQ6AAAABAg0AEAACBAoAMAAECAQAcAAIAAgQ4AAAABAh0AAAACBDoAAAAECHQAAAAIEOgAAAAQINABAAAgQKADAABAgEAHAACAAIEOAAAAAQIdAAAAAgQ6AAAABAh0AAAACBDoAAAAECDQAQAAIECgAwAAQIBABwAAgACBDgAAAAECHQAAAAIEOgAAAAQIdAAAAAgQ6AAAABAg0AEAACBAoAMAAECAQAcAAIAAgQ4AAAABAh0AAAACBDoAAAAECHQAAAAIEOgAAAAQINABAAAgQKADAABAgEAHAACAAIEOAAAAAQIdAAAAAgQ6AAAABAh0AAAACBDoAAAAECDQAQAAIECgAwAAQIBABwAAgACBDgAAAAECHQAAAAIEOgAAAARsl2WZ3gBcsY9/9LvVftBvX96bngAH8dH1D6cnjLl/7eH0hBHn5+fTEziw/X6/nd4AXC0XdAAAAAgQ6AAAABAg0AEAACBAoAMAAECAQAcAAIAAgQ4AAAABAh0AAAACBDoAAAAECHQAAAAIEOgAAAAQINABAAAgQKADAABAgEAHAACAAIEOAAAAAQIdAAAAAgQ6AAAABAh0AAAACBDoAAAAECDQAQAAIECgAwAAQIBABwAAgACBDgAAAAECHQAAAAIEOgAAAAQIdAAAAAgQ6AAAABAg0AEAACBAoAMAAECAQAcAAIAAgQ4AAAABAh0AAAACBDoAAAAECHQAAAAIEOgAAAAQINABAAAgQKADAABAgEAHAACAAIEOAAAAAQIdAAAAAgQ6AAAABAh0AAAACBDoAAAAECDQAQAAIECgAwAAQIBABwAAgACBDgAAAAECHQAAAAIEOgAAAAQIdAAAAAgQ6AAAABAg0AEAACBAoAMAAECAQAcAAIAAgQ4AAAABAh0AAAACBDoAAAAECHQAAAAIEOgAAAAQINABAAAgQKADAABAgEAHAACAgN30AA7v359vlukNU358Y7Od3jDh5VffmJ4w53J6ABzGqj/n3z6cXgAAL4QLOgAAAAQIdAAAAAgQ6AAAABAg0AEAACBAoAMAAECAQAcAAIAAgQ4AAAABAh0AAAACBDoAAAAECHQAAAAIEOgAAAAQINABAAAgQKADAABAgEAHAACAAIEOAAAAAQIdAAAAAgQ6AAAABAh0AAAACBDoAAAAECDQAQAAIECgAwAAQIBABwAAgACBDgAAAAECHQAAAAIEOgAAAAQIdAAAAAgQ6AAAABAg0AEAACBAoAMAAECAQAcAAIAAgQ4AAAABAh0AAAACBDoAAAAECHQAAAAIEOgAAAAQINABAAAgQKADAABAgEAHAACAAIEOAAAAAQIdAAAAAgQ6AAAABAh0AAAACBDoAAAAECDQAQAAIECgAwAAQIBABwAAgACBDgAAAAECHQAAAAIEOgAAAAQIdAAAAAgQ6AAAABAg0AEAACBAoAMAAECAQAcAAIAAgQ4AAAABAh0AAAACBDoAAAAECHQAAAAIEOgAAAAQINABAAAgQKADAABAgEAHAACAgN30AA7v8T+nF8z55fSAId+99pPpCWMevPbN9IQR7z16ZXrCmAfvrvOZfzc9YNLfpgcAwIvhgg4AAAABAh0AAAACBDoAAAAECHQAAAAIEOgAAAAQINABAAAgQKADAABAgEAHAACAAIEOAAAAAQIdAAAAAgQ6AAAABAh0AAAACBDoAAAAECDQAQAAIECgAwAAQIBABwAAgACBDgAAAAECHQAAAAIEOgAAAAQIdAAAAAgQ6AAAABAg0AEAACBAoAMAAECAQAcAAIAAgQ4AAAABAh0AAAACBDoAAAAECHQAAAAIEOgAAAAQINABAAAgQKADAABAgEAHAACAAIEOAAAAAQIdAAAAAgQ6AAAABAh0AAAACBDoAAAAECDQAQAAIECgAwAAQIBABwAAgACBDgAAAAECHQAAAAIEOgAAAAQIdAAAAAgQ6AAAABAg0AEAACBAoAMAAECAQAcAAIAAgQ4AAAABAh0AAAACBDoAAAAECHQAAAAIEOgAAAAQINABAAAgQKADAABAgEAHAACAAIEOAAAAAQIdAAAAAgQ6AAAABAh0AAAACBDoAAAAELBdlmV6Awd2953Hq33ov/309e30hglHR0erfeZrdev7N6cnAFfsk5e+mJ7Age33+1W+x8CauKADAABAgEAHAACAAIEOAAAAAQIdAAAAAgQ6AAAABAh0AAAACBDoAAAAECDQAQAAIECgAwAAQIBABwAAgACBDgAAAAECHQAAAAIEOgAAAAQIdAAAAAgQ6AAAABAg0AEAACBAoAMAAECAQAcAAIAAgQ4AAAABAh0AAAACBDoAAAAECHQAAAAIEOgAAAAQINABAAAgQKADAABAgEAHAACAAIEOAAAAAQIdAAAAAgQ6AAAABAh0AAAACBDoAAAAECDQAQAAIECgAwAAQIBABwAAgACBDgAAAAECHQAAAAIEOgAAAAQIdAAAAAgQ6AAAABAg0AEAACBAoAMAAECAQAcAAIAAgQ4AAAABAh0AAAACBDoAAAAECHQAAAAIEOgAAAAQINABAAAgQKADAABAgEAHAACAAIEOAAAAAQIdAAAAAgQ6AAAABAh0AAAACBDoAAAAECDQAQAAIECgAwAAQIBABwAAgACBDgAAAAECHQAAAAIEOgAAAAQIdAAAAAjYTQ/g8P71x99MTxjz8Wdny/SGCbe+f3N6wpjT62fTE0bcv/ZwegIczK+//dX0hBmX0wM4tN32aJXvMZvNZvN82W+nN0zwzNfHBR0AAAACBDoAAAAECHQAAAAIEOgAAAAQINABAAAgQKADAABAgEAHAACAAIEOAAAAAQIdAAAAAgQ6AAAABAh0AAAACBDoAAAAECDQAQAAIECgAwAAQIBABwAAgACBDgAAAAECHQAAAAIEOgAAAAQIdAAAAAgQ6AAAABAg0AEAACBAoAMAAECAQAcAAIAAgQ4AAAABAh0AAAACBDoAAAAECHQAAAAIEOgAAAAQINABAAAgQKADAABAgEAHAACAAIEOAAAAAQIdAAAAAgQ6AAAABAh0AAAACBDoAAAAECDQAQAAIECgAwAAQIBABwAAgACBDgAAAAECHQAAAAIEOgAAAAQIdAAAAAgQ6AAAABAg0AEAACBAoAMAAECAQAcAAIAAgQ4AAAABAh0AAAACBDoAAAAECHQAAAAIEOgAAAAQINABAAAgQKADAABAgEAHAACAAIEOAAAAAQIdAAAAAgQ6AAAABAh0AAAACBDoAAAAECDQAQAAIGA3PQAAAH6I0+tn0xNGnG7OpieM2W2PlukNcAgu6AAAABAg0AEAACBAoAMAAECAQAcAAIAAgQ4AAAABAh0AAAACBDoAAAAECHQAAAAIEOgAAAAQINABAAAgQKADAABAgEAHAACAAIEOAAAAAQIdAAAAAgQ6AAAABAh0AAAACBDoAAAAECDQAQAAIECgAwAAQIBABwAAgACBDgAAAAECHQAAAAIEOgAAAAQIdAAAAAgQ6AAAABAg0AEAACBAoAMAAECAQAcAAIAAgQ4AAAABAh0AAAACBDoAAAAECHQAAAAIEOgAAAAQINABAAAgQKADAABAgEAHAACAAIEOAAAAAQIdAAAAAgQ6AAAABAh0AAAACBDoAAAAECDQAQAAIECgAwAAQIBABwAAgACBDgAAAAECHQAAAAIEOgAAAAQIdAAAAAgQ6AAAABAg0AEAACBAoAMAAECAQAcAAIAAgQ4AAAABAh0AAAACBDoAAAAECHQAAAAIEOgAAAAQINABAAAgQKADAABAgEAHAACAAIEOAAAAAQIdAAAAAnbTAybttkfL9IYJH9z8enrCmPc/fX07vWHCbntvlf/rm81mc7o5m54w4s6dO9MT4GCWu8+mJ4z4w+aL6Qlj1vrd/o/LL6cnAFfMBR0AAAACBDoAAAAECHQAAAAIEOgAAAAQINABAAAgQKADAABAgEAHAACAAIEOAAAAAQIdAAAAAgQ6AAAABAh0AAAACBDoAAAAECDQAQAAIECgAwAAQIBABwAAgACBDgAAAAECHQAAAAIEOgAAAAQIdAAAAAgQ6AAAABAg0AEAACBAoAMAAECAQAcAAIAAgQ4AAAABAh0AAAACBDoAAAAECHQAAAAIEOgAAAAQINABAAAgQKADAABAgEAHAACAAIEOAAAAAQIdAAAAAgQ6AAAABAh0AAAACBDoAAAAECDQAQAAIECgAwAAQIBABwAAgACBDgAAAAECHQAAAAIEOgAAAAQIdAAAAAgQ6AAAABAg0AEAACBAoAMAAECAQAcAAIAAgQ4AAAABAh0AAAACBDoAAAAECHQAAAAIEOgAAAAQINABAAAgQKADAABAgEAHAACAAIEOAAAAAQIdAAAAAgQ6AAAABAh0AAAACBDoAAAAECDQAQAAIGA3PQAOabc9WqY3cFgvv/rG9IQRt95f59/NOn3ys6+mJ8y4nB4w5/blvekJHNjzZb+d3gCH4IIOAAAAAQIdAAAAAgQ6AAAABAh0AAAACBDoAAAAECDQAQAAIECgAwAAQIBABwAAgACBDgAAAAECHQAAAAIEOgAAAAQIdAAAAAgQ6AAAABAg0AEAACBAoAMAAECAQAcAAIAAgQ4AAAABAh0AAAACBDoAAAAECHQAAAAIEOgAAAAQINABAAAgQKADAABAgEAHAACAAIEOAAAAAQIdAAAAAgQ6AAAABAh0AAAACBDoAAAAECDQAQAAIECgAwAAQIBABwAAgACBDgAAAAECHQAAAAIEOgAAAAQIdAAAAAgQ6AAAABAg0AEAACBAoAMAAECAQAcAAIAAgQ4AAAABAh0AAAACBDoAAAAECHQAAAAIEOgAAAAQINABAAAgQKADAABAgEAHAACAAIEOAAAAAQIdAAAAAgQ6AAAABAh0AAAACBDoAAAAECDQAQAAIECgAwAAQIBABwAAgACBDgAAAAECHQAAAAIEOgAAAAQIdAAAAAgQ6AAAABAg0AEAACBgNz1g0vNlv53eMOHuO4+X6Q0c1oN3v5meMObZX38/PQG4Ys/Ov5qeMGLN3+3vPXplegIcxG57tNr39rW2mgs6AAAABAh0AAAACBDoAAAAECDQAQAAIECgAwAAQIBABwAAgACBDgAAAAECHQAAAAIEOgAAAAQIdAAAAAgQ6AAAABAg0AEAACBAoAMAAECAQAcAAIAAgQ4AAAABAh0AAAACBDoAAAAECHQAAAAIEOgAAAAQINABAAAgQKADAABAgEAHAACAAIEOAAAAAQIdAAAAAgQ6AAAABAh0AAAACBDoAAAAECDQAQAAIECgAwAAQIBABwAAgACBDgAAAAECHQAAAAIEOgAAAAQIdAAAAAgQ6AAAABAg0AEAACBAoAMAAECAQAcAAIAAgQ4AAAABAh0AAAACBDoAAAAECHQAAAAIEOgAAAAQINABAAAgQKADAABAgEAHAACAAIEOAAAAAQIdAAAAAgQ6AAAABAh0AAAACBDoAAAAECDQAQAAIECgAwAAQIBABwAAgACBDgAAAAECHQAAAAIEOgAAAAQIdAAAAAgQ6AAAABAg0AEAACBAoAMAAEDAbnrApN32aJneMOGDm19PTxjz2V/20xNG/Pmtn09PGHN6/Wx6AsCV+Pujm9MTxqz19/wXbx1NTxiz1vd21scFHQAAAAIEOgAAAAQIdAAAAAgQ6AAAABAg0AEAACBAoAMAAECAQAcAAIAAgQ4AAAABAh0AAAACBDoAAAAECHQAAAAIEOgAAAAQINABAAAgQKADAABAgEAHAACAAIEOAAAAAQIdAAAAAgQ6AAAABAh0AAAACBDoAAAAECDQAQAAIECgAwAAQIBABwAAgACBDgAAAAECHQAAAAIEOgAAAAQIdAAAAAgQ6AAAABAg0AEAACBAoAMAAECAQAcAAIAAgQ4AAAABAh0AAAACBDoAAAAECHQAAAAIEOgAAAAQINABAAAgQKADAABAgEAHAACAAIEOAAAAAQIdAAAAAgQ6AAAABAh0AAAACBDoAAAAECDQAQAAIECgAwAAQIBABwAAgACBDgAAAAECHQAAAAIEOgAAAAQIdAAAAAgQ6AAAABAg0AEAACBAoAMAAECAQAcAAIAAgQ4AAAABAh0AAAACBDoAAAAECHQAAAAIEOgAAAAQINABAAAgQKADAABAwH8AQrekK1f4JYwAAAAASUVORK5CYII=;" vertex="1" parent="1">
          <mxGeometry x="410" y="320" width="140" height="140" as="geometry" />
        </mxCell>
        <mxCell id="tYSj36wMg1A5TvZ68b_3-2" value="" style="shape=image;verticalLabelPosition=bottom;labelBackgroundColor=default;verticalAlign=top;aspect=fixed;imageAspect=0;image=data:image/png,iVBORw0KGgoAAAANSUhEUgAAA+gAAAPoCAYAAABNo9TkAAAABGdBTUEAALGPC/xhBQAACklpQ0NQc1JHQiBJRUM2MTk2Ni0yLjEAAEiJnVN3WJP3Fj7f92UPVkLY8LGXbIEAIiOsCMgQWaIQkgBhhBASQMWFiApWFBURnEhVxILVCkidiOKgKLhnQYqIWotVXDjuH9yntX167+3t+9f7vOec5/zOec8PgBESJpHmomoAOVKFPDrYH49PSMTJvYACFUjgBCAQ5svCZwXFAADwA3l4fnSwP/wBr28AAgBw1S4kEsfh/4O6UCZXACCRAOAiEucLAZBSAMguVMgUAMgYALBTs2QKAJQAAGx5fEIiAKoNAOz0ST4FANipk9wXANiiHKkIAI0BAJkoRyQCQLsAYFWBUiwCwMIAoKxAIi4EwK4BgFm2MkcCgL0FAHaOWJAPQGAAgJlCLMwAIDgCAEMeE80DIEwDoDDSv+CpX3CFuEgBAMDLlc2XS9IzFLiV0Bp38vDg4iHiwmyxQmEXKRBmCeQinJebIxNI5wNMzgwAABr50cH+OD+Q5+bk4eZm52zv9MWi/mvwbyI+IfHf/ryMAgQAEE7P79pf5eXWA3DHAbB1v2upWwDaVgBo3/ldM9sJoFoK0Hr5i3k4/EAenqFQyDwdHAoLC+0lYqG9MOOLPv8z4W/gi372/EAe/tt68ABxmkCZrcCjg/1xYW52rlKO58sEQjFu9+cj/seFf/2OKdHiNLFcLBWK8ViJuFAiTcd5uVKRRCHJleIS6X8y8R+W/QmTdw0ArIZPwE62B7XLbMB+7gECiw5Y0nYAQH7zLYwaC5EAEGc0Mnn3AACTv/mPQCsBAM2XpOMAALzoGFyolBdMxggAAESggSqwQQcMwRSswA6cwR28wBcCYQZEQAwkwDwQQgbkgBwKoRiWQRlUwDrYBLWwAxqgEZrhELTBMTgN5+ASXIHrcBcGYBiewhi8hgkEQcgIE2EhOogRYo7YIs4IF5mOBCJhSDSSgKQg6YgUUSLFyHKkAqlCapFdSCPyLXIUOY1cQPqQ28ggMor8irxHMZSBslED1AJ1QLmoHxqKxqBz0XQ0D12AlqJr0Rq0Hj2AtqKn0UvodXQAfYqOY4DRMQ5mjNlhXIyHRWCJWBomxxZj5Vg1Vo81Yx1YN3YVG8CeYe8IJAKLgBPsCF6EEMJsgpCQR1hMWEOoJewjtBK6CFcJg4Qxwicik6hPtCV6EvnEeGI6sZBYRqwm7iEeIZ4lXicOE1+TSCQOyZLkTgohJZAySQtJa0jbSC2kU6Q+0hBpnEwm65Btyd7kCLKArCCXkbeQD5BPkvvJw+S3FDrFiOJMCaIkUqSUEko1ZT/lBKWfMkKZoKpRzame1AiqiDqfWkltoHZQL1OHqRM0dZolzZsWQ8ukLaPV0JppZ2n3aC/pdLoJ3YMeRZfQl9Jr6Afp5+mD9HcMDYYNg8dIYigZaxl7GacYtxkvmUymBdOXmchUMNcyG5lnmA+Yb1VYKvYqfBWRyhKVOpVWlX6V56pUVXNVP9V5qgtUq1UPq15WfaZGVbNQ46kJ1Bar1akdVbupNq7OUndSj1DPUV+jvl/9gvpjDbKGhUaghkijVGO3xhmNIRbGMmXxWELWclYD6yxrmE1iW7L57Ex2Bfsbdi97TFNDc6pmrGaRZp3mcc0BDsax4PA52ZxKziHODc57LQMtPy2x1mqtZq1+rTfaetq+2mLtcu0W7eva73VwnUCdLJ31Om0693UJuja6UbqFutt1z+o+02PreekJ9cr1Dund0Uf1bfSj9Rfq79bv0R83MDQINpAZbDE4Y/DMkGPoa5hpuNHwhOGoEctoupHEaKPRSaMnuCbuh2fjNXgXPmasbxxirDTeZdxrPGFiaTLbpMSkxeS+Kc2Ua5pmutG003TMzMgs3KzYrMnsjjnVnGueYb7ZvNv8jYWlRZzFSos2i8eW2pZ8ywWWTZb3rJhWPlZ5VvVW16xJ1lzrLOtt1ldsUBtXmwybOpvLtqitm63Edptt3xTiFI8p0in1U27aMez87ArsmuwG7Tn2YfYl9m32zx3MHBId1jt0O3xydHXMdmxwvOuk4TTDqcSpw+lXZxtnoXOd8zUXpkuQyxKXdpcXU22niqdun3rLleUa7rrStdP1o5u7m9yt2W3U3cw9xX2r+00umxvJXcM970H08PdY4nHM452nm6fC85DnL152Xlle+70eT7OcJp7WMG3I28Rb4L3Le2A6Pj1l+s7pAz7GPgKfep+Hvqa+It89viN+1n6Zfgf8nvs7+sv9j/i/4XnyFvFOBWABwQHlAb2BGoGzA2sDHwSZBKUHNQWNBbsGLww+FUIMCQ1ZH3KTb8AX8hv5YzPcZyya0RXKCJ0VWhv6MMwmTB7WEY6GzwjfEH5vpvlM6cy2CIjgR2yIuB9pGZkX+X0UKSoyqi7qUbRTdHF09yzWrORZ+2e9jvGPqYy5O9tqtnJ2Z6xqbFJsY+ybuIC4qriBeIf4RfGXEnQTJAntieTE2MQ9ieNzAudsmjOc5JpUlnRjruXcorkX5unOy553PFk1WZB8OIWYEpeyP+WDIEJQLxhP5aduTR0T8oSbhU9FvqKNolGxt7hKPJLmnVaV9jjdO31D+miGT0Z1xjMJT1IreZEZkrkj801WRNberM/ZcdktOZSclJyjUg1plrQr1zC3KLdPZisrkw3keeZtyhuTh8r35CP5c/PbFWyFTNGjtFKuUA4WTC+oK3hbGFt4uEi9SFrUM99m/ur5IwuCFny9kLBQuLCz2Lh4WfHgIr9FuxYji1MXdy4xXVK6ZHhp8NJ9y2jLspb9UOJYUlXyannc8o5Sg9KlpUMrglc0lamUycturvRauWMVYZVkVe9ql9VbVn8qF5VfrHCsqK74sEa45uJXTl/VfPV5bdra3kq3yu3rSOuk626s91m/r0q9akHV0IbwDa0b8Y3lG19tSt50oXpq9Y7NtM3KzQM1YTXtW8y2rNvyoTaj9nqdf13LVv2tq7e+2Sba1r/dd3vzDoMdFTve75TsvLUreFdrvUV99W7S7oLdjxpiG7q/5n7duEd3T8Wej3ulewf2Re/ranRvbNyvv7+yCW1SNo0eSDpw5ZuAb9qb7Zp3tXBaKg7CQeXBJ9+mfHvjUOihzsPcw83fmX+39QjrSHkr0jq/dawto22gPaG97+iMo50dXh1Hvrf/fu8x42N1xzWPV56gnSg98fnkgpPjp2Snnp1OPz3Umdx590z8mWtdUV29Z0PPnj8XdO5Mt1/3yfPe549d8Lxw9CL3Ytslt0utPa49R35w/eFIr1tv62X3y+1XPK509E3rO9Hv03/6asDVc9f41y5dn3m978bsG7duJt0cuCW69fh29u0XdwruTNxdeo94r/y+2v3qB/oP6n+0/rFlwG3g+GDAYM/DWQ/vDgmHnv6U/9OH4dJHzEfVI0YjjY+dHx8bDRq98mTOk+GnsqcTz8p+Vv9563Or59/94vtLz1j82PAL+YvPv655qfNy76uprzrHI8cfvM55PfGm/K3O233vuO+638e9H5ko/ED+UPPR+mPHp9BP9z7nfP78L/eE8/stRzjPAAAAIGNIUk0AAHomAACAhAAA+gAAAIDoAAB1MAAA6mAAADqYAAAXcJy6UTwAAAAJcEhZcwAACxMAAAsTAQCanBgAABvCSURBVHic7dnPy2Z1Hcfh565ZFAzuHIg2xkwqoYHDEBjaBJUYEUgtooUkOItoU4mEKRhIPySkkMCExlJcBWW0KESwFBeCM4xDSow1VgiRPZFQDrQw5vRPjOfzinNdf8H74dzn/t6v57tblmUPAPj/9tcbPuFA35jXdm9NTxhxfv/C9IQxJ3cXpyewshPLO6YnsDJPHAAAAAIEOgAAAAQIdAAAAAgQ6AAAABAg0AEAACBAoAMAAECAQAcAAIAAgQ4AAAABAh0AAAACBDoAAAAECHQAAAAIEOgAAAAQINABAAAgQKADAABAgEAHAACAAIEOAAAAAQIdAAAAAgQ6AAAABAh0AAAACBDoAAAAECDQAQAAIECgAwAAQIBABwAAgACBDgAAAAECHQAAAAIEOgAAAAQIdAAAAAgQ6AAAABAg0AEAACBAoAMAAECAQAcAAIAAgQ4AAAABAh0AAAACBDoAAAAECHQAAAAIEOgAAAAQINABAAAgQKADAABAgEAHAACAAIEOAAAAAQIdAAAAAgQ6AAAABAh0AAAACBDoAAAAECDQAQAAIECgAwAAQIBABwAAgACBDgAAAAECHQAAAAIEOgAAAAQIdAAAAAgQ6AAAABAg0AEAACBAoAMAAECAQAcAAIAAgQ4AAAABAh0AAAACBDoAAAAECHQAAAAIEOgAAAAQINABAAAgYLcsy/QGALgk/nrDJzZ7qL22e2t6Ais7v39hesKIz3zv9ekJc16YHjDjd785Mj2BlW31+21vzw06AAAAJAh0AAAACBDoAAAAECDQAQAAIECgAwAAQIBABwAAgACBDgAAAAECHQAAAAIEOgAAAAQIdAAAAAgQ6AAAABAg0AEAACBAoAMAAECAQAcAAIAAgQ4AAAABAh0AAAACBDoAAAAECHQAAAAIEOgAAAAQINABAAAgQKADAABAgEAHAACAAIEOAAAAAQIdAAAAAgQ6AAAABAh0AAAACBDoAAAAECDQAQAAIECgAwAAQIBABwAAgACBDgAAAAECHQAAAAIEOgAAAAQIdAAAAAgQ6AAAABAg0AEAACBAoAMAAECAQAcAAIAAgQ4AAAABAh0AAAACBDoAAAAECHQAAAAIEOgAAAAQINABAAAgQKADAABAgEAHAACAAIEOAAAAAQIdAAAAAgQ6AAAABAh0AAAACBDoAAAAECDQAQAAIECgAwAAQIBABwAAgACBDgAAAAECHQAAAAIEOgAAAAQIdAAAAAgQ6AAAABAg0AEAACBAoAMAAECAQAcAAICA3bIs0xsAuMQev+rYJr/cjxw6OD1hzF3/+Pf0BFZ2/+WXTU8YcX7/wvQEWM1Wz7Utv+du0AEAACBAoAMAAECAQAcAAIAAgQ4AAAABAh0AAAACBDoAAAAECHQAAAAIEOgAAAAQINABAAAgQKADAABAgEAHAACAAIEOAAAAAQIdAAAAAgQ6AAAABAh0AAAACBDoAAAAECDQAQAAIECgAwAAQIBABwAAgACBDgAAAAECHQAAAAIEOgAAAAQIdAAAAAgQ6AAAABAg0AEAACBAoAMAAECAQAcAAIAAgQ4AAAABAh0AAAACBDoAAAAECHQAAAAIEOgAAAAQINABAAAgQKADAABAgEAHAACAAIEOAAAAAQIdAAAAAgQ6AAAABAh0AAAACBDoAAAAECDQAQAAIECgAwAAQIBABwAAgACBDgAAAAECHQAAAAIEOgAAAAQIdAAAAAgQ6AAAABAg0AEAACBAoAMAAECAQAcAAIAAgQ4AAAABAh0AAAACBDoAAAAECHQAAAAIEOgAAAAQINABAAAgQKADAABAgEAHAACAAIEOAAAAAQIdAAAAAnbLskxvAOASO3710U1+uT/4k+9MTxjzn69t829/93e/Pj1hzEu33TM9YcS1j35resKYrT7zI4cOTk8Yc37/wvSEESd3F6cnjHGDDgAAAAECHQAAAAIEOgAAAAQIdAAAAAgQ6AAAABAg0AEAACBAoAMAAECAQAcAAIAAgQ4AAAABAh0AAAACBDoAAAAECHQAAAAIEOgAAAAQINABAAAgQKADAABAgEAHAACAAIEOAAAAAQIdAAAAAgQ6AAAABAh0AAAACBDoAAAAECDQAQAAIECgAwAAQIBABwAAgACBDgAAAAECHQAAAAIEOgAAAAQIdAAAAAgQ6AAAABAg0AEAACBAoAMAAECAQAcAAIAAgQ4AAAABAh0AAAACBDoAAAAECHQAAAAIEOgAAAAQINABAAAgQKADAABAgEAHAACAAIEOAAAAAQIdAAAAAgQ6AAAABAh0AAAACBDoAAAAECDQAQAAIECgAwAAQIBABwAAgACBDgAAAAECHQAAAAIEOgAAAAQIdAAAAAgQ6AAAABAg0AEAACBAoAMAAECAQAcAAIAAgQ4AAAABAh0AAAACBDoAAAAECHQAAAAIEOgAAAAQINABAAAg4MD0AAAuvROL/79uzX8/+YHpCazsii98aHoCKzu5uzg9YcSJ/QvTE2A1fsEBAABAgEAHAACAAIEOAAAAAQIdAAAAAgQ6AAAABAh0AAAACBDoAAAAECDQAQAAIECgAwAAQIBABwAAgACBDgAAAAECHQAAAAIEOgAAAAQIdAAAAAgQ6AAAABAg0AEAACBAoAMAAECAQAcAAIAAgQ4AAAABAh0AAAACBDoAAAAECHQAAAAIEOgAAAAQINABAAAgQKADAABAgEAHAACAAIEOAAAAAQIdAAAAAgQ6AAAABAh0AAAACBDoAAAAECDQAQAAIECgAwAAQIBABwAAgACBDgAAAAECHQAAAAIEOgAAAAQIdAAAAAgQ6AAAABAg0AEAACBAoAMAAECAQAcAAIAAgQ4AAAABAh0AAAACBDoAAAAECHQAAAAIEOgAAAAQINABAAAgQKADAABAgEAHAACAAIEOAAAAAQIdAAAAAgQ6AAAABAh0AAAACBDoAAAAECDQAQAAIECgAwAAQIBABwAAgACBDgAAAAECHQAAAAIEOgAAAAQcmB4AAJfKbf983/SEMT+YHjDkzd/+cnoCK9vye/7oM7+enjDizR/fNz1hzF8ee2F6wohnz53ZTW+Y4gYdAAAAAgQ6AAAABAh0AAAACBDoAAAAECDQAQAAIECgAwAAQIBABwAAgACBDgAAAAECHQAAAAIEOgAAAAQIdAAAAAgQ6AAAABAg0AEAACBAoAMAAECAQAcAAIAAgQ4AAAABAh0AAAACBDoAAAAECHQAAAAIEOgAAAAQINABAAAgQKADAABAgEAHAACAAIEOAAAAAQIdAAAAAgQ6AAAABAh0AAAACBDoAAAAECDQAQAAIECgAwAAQIBABwAAgACBDgAAAAECHQAAAAIEOgAAAAQIdAAAAAgQ6AAAABAg0AEAACBAoAMAAECAQAcAAIAAgQ4AAAABAh0AAAACBDoAAAAECHQAAAAIEOgAAAAQINABAAAgQKADAABAgEAHAACAAIEOAAAAAQIdAAAAAgQ6AAAABAh0AAAACBDoAAAAECDQAQAAIECgAwAAQIBABwAAgACBDgAAAAECHQAAAAIEOgAAAAQIdAAAAAgQ6AAAABAg0AEAACBAoAMAAEDAgWdPv7pMj4A1HD92eDe9AdZy6yunN/l5v+fDn9/smXblvR+ZngCreOO+b0xPmPPE96cXAG8zN+gAAAAQINABAAAgQKADAABAgEAHAACAAIEOAAAAAQIdAAAAAgQ6AAAABAh0AAAACBDoAAAAECDQAQAAIECgAwAAQIBABwAAgACBDgAAAAECHQAAAAIEOgAAAAQIdAAAAAgQ6AAAABAg0AEAACBAoAMAAECAQAcAAIAAgQ4AAAABAh0AAAACBDoAAAAECHQAAAAIEOgAAAAQINABAAAgQKADAABAgEAHAACAAIEOAAAAAQIdAAAAAgQ6AAAABAh0AAAACBDoAAAAECDQAQAAIECgAwAAQIBABwAAgACBDgAAAAECHQAAAAIEOgAAAAQIdAAAAAgQ6AAAABAg0AEAACBAoAMAAECAQAcAAIAAgQ4AAAABAh0AAAACBDoAAAAECHQAAAAIEOgAAAAQINABAAAgQKADAABAgEAHAACAAIEOAAAAAQIdAAAAAgQ6AAAABAh0AAAACBDoAAAAECDQAQAAIECgAwAAQIBABwAAgACBDgAAAAEHpgdMOXX23PQE1rdMD5hy/Njh3fQGWMNP3/m36Qlj/vvNJ6YnsLLXdm9NTxhx6t7PTU+Yc/YX0wtGvPTYC9MTWNnxq49u9ne7G3QAAAAIEOgAAAAQINABAAAgQKADAABAgEAHAACAAIEOAAAAAQIdAAAAAgQ6AAAABAh0AAAACBDoAAAAECDQAQAAIECgAwAAQIBABwAAgACBDgAAAAECHQAAAAIEOgAAAAQIdAAAAAgQ6AAAABAg0AEAACBAoAMAAECAQAcAAIAAgQ4AAAABAh0AAAACBDoAAAAECHQAAAAIEOgAAAAQINABAAAgQKADAABAgEAHAACAAIEOAAAAAQIdAAAAAgQ6AAAABAh0AAAACBDoAAAAECDQAQAAIECgAwAAQIBABwAAgACBDgAAAAECHQAAAAIEOgAAAAQIdAAAAAgQ6AAAABAg0AEAACBAoAMAAECAQAcAAIAAgQ4AAAABAh0AAAACBDoAAAAECHQAAAAIEOgAAAAQINABAAAgQKADAABAgEAHAACAAIEOAAAAAQIdAAAAAgQ6AAAABAh0AAAACBDoAAAAECDQAQAAIECgAwAAQIBABwAAgACBDgAAAAEHpgewvhfPvDw9gfUt0wMmHD92eDe9gXWd378wPWHM+ekBsJK7vvKj6Qlj7r/8sukJrOzk7uL0BFbmBh0AAAACBDoAAAAECHQAAAAIEOgAAAAQINABAAAgQKADAABAgEAHAACAAIEOAAAAAQIdAAAAAgQ6AAAABAh0AAAACBDoAAAAECDQAQAAIECgAwAAQIBABwAAgACBDgAAAAECHQAAAAIEOgAAAAQIdAAAAAgQ6AAAABAg0AEAACBAoAMAAECAQAcAAIAAgQ4AAAABAh0AAAACBDoAAAAECHQAAAAIEOgAAAAQINABAAAgQKADAABAgEAHAACAAIEOAAAAAQIdAAAAAgQ6AAAABAh0AAAACBDoAAAAECDQAQAAIECgAwAAQIBABwAAgACBDgAAAAECHQAAAAIEOgAAAAQIdAAAAAgQ6AAAABAg0AEAACBAoAMAAECAQAcAAIAAgQ4AAAABAh0AAAACBDoAAAAECHQAAAAIEOgAAAAQINABAAAgQKADAABAgEAHAACAAIEOAAAAAQIdAAAAAgQ6AAAABAh0AAAACBDoAAAAECDQAQAAIGC3LMv0hhHPnn51m3/43t7eqbPnpieMePHMy9MTxlx39JrpCazszhOf2k1vgDUcv/roZs/zrTqxbPd+6cihg9MTRlz/3DPONDZju99wAAAAECLQAQAAIECgAwAAQIBABwAAgACBDgAAAAECHQAAAAIEOgAAAAQIdAAAAAgQ6AAAABAg0AEAACBAoAMAAECAQAcAAIAAgQ4AAAABAh0AAAACBDoAAAAECHQAAAAIEOgAAAAQINABAAAgQKADAABAgEAHAACAAIEOAAAAAQIdAAAAAgQ6AAAABAh0AAAACBDoAAAAECDQAQAAIECgAwAAQIBABwAAgACBDgAAAAECHQAAAAIEOgAAAAQIdAAAAAgQ6AAAABAg0AEAACBAoAMAAECAQAcAAIAAgQ4AAAABAh0AAAACBDoAAAAECHQAAAAIEOgAAAAQINABAAAgQKADAABAgEAHAACAAIEOAAAAAQIdAAAAAgQ6AAAABAh0AAAACBDoAAAAECDQAQAAIECgAwAAQIBABwAAgACBDgAAAAECHQAAAAIEOgAAAAQIdAAAAAgQ6AAAABAg0AEAACBAoAMAAECAQAcAAIAAgQ4AAAABAh0AAAACdsuyTG9gZc+efnWTD/3U2XPTE8a8eObl6Qms7Lqj10xPGPH8I1+dnjDmXe/94PSEEV88emh6Aqzm4TP70xNGbPk9v/Huh3bTG1iXG3QAAAAIEOgAAAAQINABAAAgQKADAABAgEAHAACAAIEOAAAAAQIdAAAAAgQ6AAAABAh0AAAACBDoAAAAECDQAQAAIECgAwAAQIBABwAAgACBDgAAAAECHQAAAAIEOgAAAAQIdAAAAAgQ6AAAABAg0AEAACBAoAMAAECAQAcAAIAAgQ4AAAABAh0AAAACBDoAAAAECHQAAAAIEOgAAAAQINABAAAgQKADAABAgEAHAACAAIEOAAAAAQIdAAAAAgQ6AAAABAh0AAAACBDoAAAAECDQAQAAIECgAwAAQIBABwAAgACBDgAAAAECHQAAAAIEOgAAAAQIdAAAAAgQ6AAAABAg0AEAACBAoAMAAECAQAcAAIAAgQ4AAAABAh0AAAACBDoAAAAECHQAAAAIEOgAAAAQINABAAAgQKADAABAgEAHAACAAIEOAAAAAQIdAAAAAgQ6AAAABAh0AAAACBDoAAAAECDQAQAAIECgAwAAQIBABwAAgIAD0wNY3/Fjh3fTGyacOntumd7Aut7zpx9PTxjz/Ivb/Lh/5dMfn54w5uEz+9MTRlx59NrpCbCeM09PLxix5ff8uW9/aZMH+o13P7TJXtnbc4MOAAAACQIdAAAAAgQ6AAAABAh0AAAACBDoAAAAECDQAQAAIECgAwAAQIBABwAAgACBDgAAAAECHQAAAAIEOgAAAAQIdAAAAAgQ6AAAABAg0AEAACBAoAMAAECAQAcAAIAAgQ4AAAABAh0AAAACBDoAAAAECHQAAAAIEOgAAAAQINABAAAgQKADAABAgEAHAACAAIEOAAAAAQIdAAAAAgQ6AAAABAh0AAAACBDoAAAAECDQAQAAIECgAwAAQIBABwAAgACBDgAAAAECHQAAAAIEOgAAAAQIdAAAAAgQ6AAAABAg0AEAACBAoAMAAECAQAcAAIAAgQ4AAAABAh0AAAACBDoAAAAECHQAAAAIEOgAAAAQINABAAAgQKADAABAgEAHAACAAIEOAAAAAQIdAAAAAgQ6AAAABAh0AAAACBDoAAAAECDQAQAAIECgAwAAQIBABwAAgACBDgAAAAECHQAAAAIEOgAAAAQIdAAAAAgQ6AAAABAg0AEAACBgtyzL9AbgbfbAyV9t8kV//Wd3TE8Y8+d/bfKR793yxmXTE8bc9ODt0xNG3HHy6ekJsJrvnfjY9ARW9tSXH5mewMrcoAMAAECAQAcAAIAAgQ4AAAABAh0AAAACBDoAAAAECHQAAAAIEOgAAAAQINABAAAgQKADAABAgEAHAACAAIEOAAAAAQIdAAAAAgQ6AAAABAh0AAAACBDoAAAAECDQAQAAIECgAwAAQIBABwAAgACBDgAAAAECHQAAAAIEOgAAAAQIdAAAAAgQ6AAAABAg0AEAACBAoAMAAECAQAcAAIAAgQ4AAAABAh0AAAACBDoAAAAECHQAAAAIEOgAAAAQINABAAAgQKADAABAgEAHAACAAIEOAAAAAQIdAAAAAgQ6AAAABAh0AAAACBDoAAAAECDQAQAAIECgAwAAQIBABwAAgACBDgAAAAECHQAAAAIEOgAAAAQIdAAAAAgQ6AAAABAg0AEAACBAoAMAAECAQAcAAIAAgQ4AAAABAh0AAAACBDoAAAAECHQAAAAIEOgAAAAQINABAAAgQKADAABAgEAHAACAAIEOAAAAAQIdAAAAAgQ6AAAABOyWZZneALzN7rz5qk2+6A88+cpuesOUvz/5w00+86e+/Mj0hDFPXnvF9IQRv3/lj9MTYDUfuOr90xNY2c0v/WV6woibHrx9esIYN+gAAAAQINABAAAgQKADAABAgEAHAACAAIEOAAAAAQIdAAAAAgQ6AAAABAh0AAAACBDoAAAAECDQAQAAIECgAwAAQIBABwAAgACBDgAAAAECHQAAAAIEOgAAAAQIdAAAAAgQ6AAAABAg0AEAACBAoAMAAECAQAcAAIAAgQ4AAAABAh0AAAACBDoAAAAECHQAAAAIEOgAAAAQINABAAAgQKADAABAgEAHAACAAIEOAAAAAQIdAAAAAgQ6AAAABAh0AAAACBDoAAAAECDQAQAAIECgAwAAQIBABwAAgACBDgAAAAECHQAAAAIEOgAAAAQIdAAAAAgQ6AAAABAg0AEAACBAoAMAAECAQAcAAIAAgQ4AAAABAh0AAAACBDoAAAAECHQAAAAIEOgAAAAQINABAAAgQKADAABAgEAHAACAAIEOAAAAAQIdAAAAAgQ6AAAABAh0AAAACBDoAAAAECDQAQAAIECgAwAAQIBABwAAgACBDgAAAAECHQAAAAJ2y7JMbwCAS+Kz11+52UPtljcum57Ayo4cOjg9gZWd378wPYGV3frK6d30BtblBh0AAAACBDoAAAAECHQAAAAIEOgAAAAQINABAAAgQKADAABAgEAHAACAAIEOAAAAAQIdAAAAAgQ6AAAABAh0AAAACBDoAAAAECDQAQAAIECgAwAAQIBABwAAgACBDgAAAAECHQAAAAIEOgAAAAQIdAAAAAgQ6AAAABAg0AEAACBAoAMAAECAQAcAAIAAgQ4AAAABAh0AAAACBDoAAAAECHQAAAAIEOgAAAAQINABAAAgQKADAABAgEAHAACAAIEOAAAAAQIdAAAAAgQ6AAAABAh0AAAACBDoAAAAECDQAQAAIECgAwAAQIBABwAAgACBDgAAAAECHQAAAAIEOgAAAAQIdAAAAAgQ6AAAABAg0AEAACBAoAMAAECAQAcAAIAAgQ4AAAABAh0AAAACBDoAAAAECHQAAAAIEOgAAAAQINABAAAgQKADAABAgEAHAACAAIEOAAAAAQIdAAAAAgQ6AAAABAh0AAAACBDoAAAAECDQAQAAIODA9AAAuFR+/vwfdtMbpjx+1bFlesOEI4cOTk8Yc/1zz2z2875ZN350k+/5+f0L0xNgNW7QAQAAIECgAwAAQIBABwAAgACBDgAAAAECHQAAAAIEOgAAAAQIdAAAAAgQ6AAAABAg0AEAACBAoAMAAECAQAcAAIAAgQ4AAAABAh0AAAACBDoAAAAECHQAAAAIEOgAAAAQINABAAAgQKADAABAgEAHAACAAIEOAAAAAQIdAAAAAgQ6AAAABAh0AAAACBDoAAAAECDQAQAAIECgAwAAQIBABwAAgACBDgAAAAECHQAAAAIEOgAAAAQIdAAAAAgQ6AAAABAg0AEAACBAoAMAAECAQAcAAIAAgQ4AAAABAh0AAAACBDoAAAAECHQAAAAIEOgAAAAQINABAAAgQKADAABAgEAHAACAAIEOAAAAAQIdAAAAAgQ6AAAABAh0AAAACBDoAAAAECDQAQAAIECgAwAAQIBABwAAgACBDgAAAAECHQAAAAIEOgAAAAQIdAAAAAgQ6AAAABAg0AEAACBAoAMAAECAQAcAAIAAgQ4AAAABAh0AAAACBDoAAAAE/A8sk/ZRLjRvKAAAAABJRU5ErkJggg==;" vertex="1" parent="1">
          <mxGeometry x="890" y="320" width="140" height="140" as="geometry" />
        </mxCell>
        <mxCell id="tYSj36wMg1A5TvZ68b_3-3" value="" style="shape=image;verticalLabelPosition=bottom;labelBackgroundColor=default;verticalAlign=top;aspect=fixed;imageAspect=0;image=data:image/png,iVBORw0KGgoAAAANSUhEUgAAA+gAAAPoCAYAAABNo9TkAAAABGdBTUEAALGPC/xhBQAACklpQ0NQc1JHQiBJRUM2MTk2Ni0yLjEAAEiJnVN3WJP3Fj7f92UPVkLY8LGXbIEAIiOsCMgQWaIQkgBhhBASQMWFiApWFBURnEhVxILVCkidiOKgKLhnQYqIWotVXDjuH9yntX167+3t+9f7vOec5/zOec8PgBESJpHmomoAOVKFPDrYH49PSMTJvYACFUjgBCAQ5svCZwXFAADwA3l4fnSwP/wBr28AAgBw1S4kEsfh/4O6UCZXACCRAOAiEucLAZBSAMguVMgUAMgYALBTs2QKAJQAAGx5fEIiAKoNAOz0ST4FANipk9wXANiiHKkIAI0BAJkoRyQCQLsAYFWBUiwCwMIAoKxAIi4EwK4BgFm2MkcCgL0FAHaOWJAPQGAAgJlCLMwAIDgCAEMeE80DIEwDoDDSv+CpX3CFuEgBAMDLlc2XS9IzFLiV0Bp38vDg4iHiwmyxQmEXKRBmCeQinJebIxNI5wNMzgwAABr50cH+OD+Q5+bk4eZm52zv9MWi/mvwbyI+IfHf/ryMAgQAEE7P79pf5eXWA3DHAbB1v2upWwDaVgBo3/ldM9sJoFoK0Hr5i3k4/EAenqFQyDwdHAoLC+0lYqG9MOOLPv8z4W/gi372/EAe/tt68ABxmkCZrcCjg/1xYW52rlKO58sEQjFu9+cj/seFf/2OKdHiNLFcLBWK8ViJuFAiTcd5uVKRRCHJleIS6X8y8R+W/QmTdw0ArIZPwE62B7XLbMB+7gECiw5Y0nYAQH7zLYwaC5EAEGc0Mnn3AACTv/mPQCsBAM2XpOMAALzoGFyolBdMxggAAESggSqwQQcMwRSswA6cwR28wBcCYQZEQAwkwDwQQgbkgBwKoRiWQRlUwDrYBLWwAxqgEZrhELTBMTgN5+ASXIHrcBcGYBiewhi8hgkEQcgIE2EhOogRYo7YIs4IF5mOBCJhSDSSgKQg6YgUUSLFyHKkAqlCapFdSCPyLXIUOY1cQPqQ28ggMor8irxHMZSBslED1AJ1QLmoHxqKxqBz0XQ0D12AlqJr0Rq0Hj2AtqKn0UvodXQAfYqOY4DRMQ5mjNlhXIyHRWCJWBomxxZj5Vg1Vo81Yx1YN3YVG8CeYe8IJAKLgBPsCF6EEMJsgpCQR1hMWEOoJewjtBK6CFcJg4Qxwicik6hPtCV6EvnEeGI6sZBYRqwm7iEeIZ4lXicOE1+TSCQOyZLkTgohJZAySQtJa0jbSC2kU6Q+0hBpnEwm65Btyd7kCLKArCCXkbeQD5BPkvvJw+S3FDrFiOJMCaIkUqSUEko1ZT/lBKWfMkKZoKpRzame1AiqiDqfWkltoHZQL1OHqRM0dZolzZsWQ8ukLaPV0JppZ2n3aC/pdLoJ3YMeRZfQl9Jr6Afp5+mD9HcMDYYNg8dIYigZaxl7GacYtxkvmUymBdOXmchUMNcyG5lnmA+Yb1VYKvYqfBWRyhKVOpVWlX6V56pUVXNVP9V5qgtUq1UPq15WfaZGVbNQ46kJ1Bar1akdVbupNq7OUndSj1DPUV+jvl/9gvpjDbKGhUaghkijVGO3xhmNIRbGMmXxWELWclYD6yxrmE1iW7L57Ex2Bfsbdi97TFNDc6pmrGaRZp3mcc0BDsax4PA52ZxKziHODc57LQMtPy2x1mqtZq1+rTfaetq+2mLtcu0W7eva73VwnUCdLJ31Om0693UJuja6UbqFutt1z+o+02PreekJ9cr1Dund0Uf1bfSj9Rfq79bv0R83MDQINpAZbDE4Y/DMkGPoa5hpuNHwhOGoEctoupHEaKPRSaMnuCbuh2fjNXgXPmasbxxirDTeZdxrPGFiaTLbpMSkxeS+Kc2Ua5pmutG003TMzMgs3KzYrMnsjjnVnGueYb7ZvNv8jYWlRZzFSos2i8eW2pZ8ywWWTZb3rJhWPlZ5VvVW16xJ1lzrLOtt1ldsUBtXmwybOpvLtqitm63Edptt3xTiFI8p0in1U27aMez87ArsmuwG7Tn2YfYl9m32zx3MHBId1jt0O3xydHXMdmxwvOuk4TTDqcSpw+lXZxtnoXOd8zUXpkuQyxKXdpcXU22niqdun3rLleUa7rrStdP1o5u7m9yt2W3U3cw9xX2r+00umxvJXcM970H08PdY4nHM452nm6fC85DnL152Xlle+70eT7OcJp7WMG3I28Rb4L3Le2A6Pj1l+s7pAz7GPgKfep+Hvqa+It89viN+1n6Zfgf8nvs7+sv9j/i/4XnyFvFOBWABwQHlAb2BGoGzA2sDHwSZBKUHNQWNBbsGLww+FUIMCQ1ZH3KTb8AX8hv5YzPcZyya0RXKCJ0VWhv6MMwmTB7WEY6GzwjfEH5vpvlM6cy2CIjgR2yIuB9pGZkX+X0UKSoyqi7qUbRTdHF09yzWrORZ+2e9jvGPqYy5O9tqtnJ2Z6xqbFJsY+ybuIC4qriBeIf4RfGXEnQTJAntieTE2MQ9ieNzAudsmjOc5JpUlnRjruXcorkX5unOy553PFk1WZB8OIWYEpeyP+WDIEJQLxhP5aduTR0T8oSbhU9FvqKNolGxt7hKPJLmnVaV9jjdO31D+miGT0Z1xjMJT1IreZEZkrkj801WRNberM/ZcdktOZSclJyjUg1plrQr1zC3KLdPZisrkw3keeZtyhuTh8r35CP5c/PbFWyFTNGjtFKuUA4WTC+oK3hbGFt4uEi9SFrUM99m/ur5IwuCFny9kLBQuLCz2Lh4WfHgIr9FuxYji1MXdy4xXVK6ZHhp8NJ9y2jLspb9UOJYUlXyannc8o5Sg9KlpUMrglc0lamUycturvRauWMVYZVkVe9ql9VbVn8qF5VfrHCsqK74sEa45uJXTl/VfPV5bdra3kq3yu3rSOuk626s91m/r0q9akHV0IbwDa0b8Y3lG19tSt50oXpq9Y7NtM3KzQM1YTXtW8y2rNvyoTaj9nqdf13LVv2tq7e+2Sba1r/dd3vzDoMdFTve75TsvLUreFdrvUV99W7S7oLdjxpiG7q/5n7duEd3T8Wej3ulewf2Re/ranRvbNyvv7+yCW1SNo0eSDpw5ZuAb9qb7Zp3tXBaKg7CQeXBJ9+mfHvjUOihzsPcw83fmX+39QjrSHkr0jq/dawto22gPaG97+iMo50dXh1Hvrf/fu8x42N1xzWPV56gnSg98fnkgpPjp2Snnp1OPz3Umdx590z8mWtdUV29Z0PPnj8XdO5Mt1/3yfPe549d8Lxw9CL3Ytslt0utPa49R35w/eFIr1tv62X3y+1XPK509E3rO9Hv03/6asDVc9f41y5dn3m978bsG7duJt0cuCW69fh29u0XdwruTNxdeo94r/y+2v3qB/oP6n+0/rFlwG3g+GDAYM/DWQ/vDgmHnv6U/9OH4dJHzEfVI0YjjY+dHx8bDRq98mTOk+GnsqcTz8p+Vv9563Or59/94vtLz1j82PAL+YvPv655qfNy76uprzrHI8cfvM55PfGm/K3O233vuO+638e9H5ko/ED+UPPR+mPHp9BP9z7nfP78L/eE8/stRzjPAAAAIGNIUk0AAHomAACAhAAA+gAAAIDoAAB1MAAA6mAAADqYAAAXcJy6UTwAAAAJcEhZcwAACxMAAAsTAQCanBgAABqMSURBVHic7dkxa53nHYdhnaLRhSBhDy0qwouGZjCBkM1Qao2GEOjUpUO6dw2dDR0zdbGHUChk6FToJG8thRAwLtiDUhDCChRiEG6rreDTL5Hz/m/8Xtcn+InnPIdz69lst9s9AN4tn5197MsdeGe9uLyenjDi4vJmegILe/no2WZ6A8v6wfQAAAAAQKADAABAgkAHAACAAIEOAAAAAQIdAAAAAgQ6AAAABAh0AAAACBDoAAAAECDQAQAAIECgAwAAQIBABwAAgACBDgAAAAECHQAAAAIEOgAAAAQIdAAAAAgQ6AAAABAg0AEAACBAoAMAAECAQAcAAIAAgQ4AAAABAh0AAAACBDoAAAAECHQAAAAIEOgAAAAQINABAAAgQKADAABAgEAHAACAAIEOAAAAAQIdAAAAAgQ6AAAABAh0AAAACBDoAAAAECDQAQAAIECgAwAAQIBABwAAgACBDgAAAAECHQAAAAIEOgAAAAQIdAAAAAgQ6AAAABAg0AEAACBAoAMAAECAQAcAAIAAgQ4AAAABAh0AAAACBDoAAAAECHQAAAAIEOgAAAAQINABAAAgQKADAABAgEAHAACAAIEOAAAAAQIdAAAAAgQ6AAAABAh0AAAACBDoAAAAECDQAQAAIECgAwAAQIBABwAAgACBDgAAAAECHQAAAAL2pwcA7NJnZx9vpzcA7MKLy+vpCWMuLm+mJ7Cwl4+ebaY3wBK8oAMAAECAQAcAAIAAgQ4AAAABAh0AAAACBDoAAAAECHQAAAAIEOgAAAAQINABAAAgQKADAABAgEAHAACAAIEOAAAAAQIdAAAAAgQ6AAAABAh0AAAACBDoAAAAECDQAQAAIECgAwAAQIBABwAAgACBDgAAAAECHQAAAAIEOgAAAAQIdAAAAAgQ6AAAABAg0AEAACBAoAMAAECAQAcAAIAAgQ4AAAABAh0AAAACBDoAAAAECHQAAAAIEOgAAAAQINABAAAgQKADAABAgEAHAACAAIEOAAAAAQIdAAAAAgQ6AAAABAh0AAAACBDoAAAAECDQAQAAIECgAwAAQIBABwAAgACBDgAAAAECHQAAAAIEOgAAAAQIdAAAAAgQ6AAAABAg0AEAACBAoAMAAECAQAcAAIAAgQ4AAAABAh0AAAACBDoAAAAECHQAAAAIEOgAAAAQINABAAAgQKADAABAgEAHAACAAIEOAAAAAQIdAAAAAgQ6AAAABAh0AAAACBDoAAAAECDQAQAAIECgAwAAQIBABwAAgACBDgAAAAECHQAAAAIEOgAAAAQIdAAAAAgQ6AAAABAg0AEAACBAoAMAAECAQAcAAIAAgQ4AAAABAh0AAAACBDoAAAAECHQAAAAIEOgAAAAQINABAAAgQKADAABAgEAHAACAAIEOAAAAAQIdAAAAAgQ6AAAABAh0AAAACBDoAAAAECDQAQAAIECgAwAAQIBABwAAgACBDgAAAAECHQAAAAIEOgAAAAQIdAAAAAgQ6AAAABAg0AEAACBAoAMAAECAQAcAAIAAgQ4AAAABAh0AAAACBDoAAAAECHQAAAAIEOgAAAAQINABAAAgQKADAABAgEAHAACAAIEOAAAAAQIdAAAAAgQ6AAAABAh0AAAACBDoAAAAECDQAQAAIECgAwAAQIBABwAAgACBDgAAAAECHQAAAAIEOgAAAAQIdAAAAAgQ6AAAABAg0AEAACBAoAMAAECAQAcAAIAAgQ4AAAABAh0AAAAC9qcHAOzSi8vr6Qkj3j8+mJ4Ai1nrPQfg3eMFHQAAAAIEOgAAAAQIdAAAAAgQ6AAAABAg0AEAACBAoAMAAECAQAcAAIAAgQ4AAAABAh0AAAACBDoAAAAECHQAAAAIEOgAAAAQINABAAAgQKADAABAgEAHAACAAIEOAAAAAQIdAAAAAgQ6AAAABAh0AAAACBDoAAAAECDQAQAAIECgAwAAQIBABwAAgACBDgAAAAECHQAAAAIEOgAAAAQIdAAAAAgQ6AAAABAg0AEAACBAoAMAAECAQAcAAIAAgQ4AAAABAh0AAAACBDoAAAAECHQAAAAIEOgAAAAQINABAAAgQKADAABAgEAHAACAAIEOAAAAAQIdAAAAAgQ6AAAABAh0AAAACBDoAAAAECDQAQAAIECgAwAAQIBABwAAgACBDgAAAAECHQAAAAIEOgAAAAQIdAAAAAgQ6AAAABAg0AEAACBAoAMAAECAQAcAAIAAgQ4AAAABAh0AAAACBDoAAAAECHQAAAAIEOgAAAAQINABAAAgQKADAABAwP70AIBduri8mZ4w4v3jg+kJsJi13nMA3j1e0AEAACBAoAMAAECAQAcAAIAAgQ4AAAABAh0AAAACBDoAAAAECHQAAAAIEOgAAAAQINABAAAgQKADAABAgEAHAACAAIEOAAAAAQIdAAAAAgQ6AAAABAh0AAAACBDoAAAAECDQAQAAIECgAwAAQIBABwAAgACBDgAAAAECHQAAAAIEOgAAAAQIdAAAAAgQ6AAAABAg0AEAACBAoAMAAECAQAcAAIAAgQ4AAAABAh0AAAACBDoAAAAECHQAAAAIEOgAAAAQINABAAAgQKADAABAgEAHAACAAIEOAAAAAQIdAAAAAgQ6AAAABAh0AAAACBDoAAAAECDQAQAAIECgAwAAQIBABwAAgACBDgAAAAECHQAAAAIEOgAAAAQIdAAAAAgQ6AAAABAg0AEAACBAoAMAAECAQAcAAIAAgQ4AAAABAh0AAAACBDoAAAAECHQAAAAIEOgAAAAQINABAAAgQKADAABAgEAHAACAAIEOAAAAAQIdAAAAAvanBwDs0o/+9Hp6wog/Tw+ABa31nv/xb/+YnjDmZ58/mJ4AsBNe0AEAACBAoAMAAECAQAcAAIAAgQ4AAAABAh0AAAACBDoAAAAECHQAAAAIEOgAAAAQINABAAAgQKADAABAgEAHAACAAIEOAAAAAQIdAAAAAgQ6AAAABAh0AAAACBDoAAAAECDQAQAAIECgAwAAQIBABwAAgACBDgAAAAECHQAAAAIEOgAAAAQIdAAAAAgQ6AAAABAg0AEAACBAoAMAAECAQAcAAIAAgQ4AAAABAh0AAAACBDoAAAAECHQAAAAIEOgAAAAQINABAAAgQKADAABAgEAHAACAAIEOAAAAAQIdAAAAAgQ6AAAABAh0AAAACBDoAAAAECDQAQAAIECgAwAAQIBABwAAgACBDgAAAAECHQAAAAIEOgAAAAQIdAAAAAgQ6AAAABAg0AEAACBAoAMAAECAQAcAAIAAgQ4AAAABAh0AAAACBDoAAAAECHQAAAAIEOgAAAAQINABAAAgQKADAABAgEAHAACAAIEOAAAAAQIdAAAAAgQ6AAAABOxPDwDYpaff/nt6woj/fvLL6QmwmB9+/vvpCQDwvfCCDgAAAAECHQAAAAIEOgAAAAQIdAAAAAgQ6AAAABAg0AEAACBAoAMAAECAQAcAAIAAgQ4AAAABAh0AAAACBDoAAAAECHQAAAAIEOgAAAAQINABAAAgQKADAABAgEAHAACAAIEOAAAAAQIdAAAAAgQ6AAAABAh0AAAACBDoAAAAECDQAQAAIECgAwAAQIBABwAAgACBDgAAAAECHQAAAAIEOgAAAAQIdAAAAAgQ6AAAABAg0AEAACBAoAMAAECAQAcAAIAAgQ4AAAABAh0AAAACBDoAAAAECHQAAAAIEOgAAAAQINABAAAgQKADAABAgEAHAACAAIEOAAAAAQIdAAAAAgQ6AAAABAh0AAAACBDoAAAAECDQAQAAIECgAwAAQIBABwAAgACBDgAAAAECHQAAAAIEOgAAAAQIdAAAAAgQ6AAAABAg0AEAACBAoAMAAECAQAcAAIAAgQ4AAAABAh0AAAACBDoAAAAECHQAAAAIEOgAAAAQsD89AGCXtv/83fSEETf/ejU9ARaz1nu+978vpxewsDffvJ2eAOyYF3QAAAAIEOgAAAAQINABAAAgQKADAABAgEAHAACAAIEOAAAAAQIdAAAAAgQ6AAAABAh0AAAACBDoAAAAECDQAQAAIECgAwAAQIBABwAAgACBDgAAAAECHQAAAAIEOgAAAAQIdAAAAAgQ6AAAABAg0AEAACBAoAMAAECAQAcAAIAAgQ4AAAABAh0AAAACBDoAAAAECHQAAAAIEOgAAAAQINABAAAgQKADAABAgEAHAACAAIEOAAAAAQIdAAAAAgQ6AAAABAh0AAAACBDoAAAAECDQAQAAIECgAwAAQIBABwAAgACBDgAAAAECHQAAAAIEOgAAAAQIdAAAAAgQ6AAAABAg0AEAACBAoAMAAECAQAcAAIAAgQ4AAAABAh0AAAACBDoAAAAECHQAAAAIEOgAAAAQINABAAAgQKADAABAgEAHAACAAIEOAAAAAQIdAAAAAgQ6AAAABAh0AAAACBDoAAAAECDQAQAAIECgAwAAQIBABwAAgACBDgAAAAH70wMmnZ4cbac3sKyz86vN9AaW9fAvX05PAHbu79MDWNibb95OTwDYCS/oAAAAECDQAQAAIECgAwAAQIBABwAAgACBDgAAAAECHQAAAAIEOgAAAAQIdAAAAAgQ6AAAABAg0AEAACBAoAMAAECAQAcAAIAAgQ4AAAABAh0AAAACBDoAAAAECHQAAAAIEOgAAAAQINABAAAgQKADAABAgEAHAACAAIEOAAAAAQIdAAAAAgQ6AAAABAh0AAAACBDoAAAAECDQAQAAIECgAwAAQIBABwAAgACBDgAAAAECHQAAAAIEOgAAAAQIdAAAAAgQ6AAAABAg0AEAACBAoAMAAECAQAcAAIAAgQ4AAAABAh0AAAACBDoAAAAECHQAAAAIEOgAAAAQINABAAAgQKADAABAgEAHAACAAIEOAAAAAQIdAAAAAgQ6AAAABAh0AAAACBDoAAAAECDQAQAAIECgAwAAQIBABwAAgACBDgAAAAECHQAAAAIEOgAAAAQIdAAAAAgQ6AAAABAg0AEAACBAoAMAAECAQAcAAIAAgQ4AAAABm+12O71hzOnJ0Sr/+LPzq830hinfvb5e5ZnfuX2w2jNnfX78i3urvOewJqev3kxPAHbsi68uV/n71Qs6AAAABAh0AAAACBDoAAAAECDQAQAAIECgAwAAQIBABwAAgACBDgAAAAECHQAAAAIEOgAAAAQIdAAAAAgQ6AAAABAg0AEAACBAoAMAAECAQAcAAIAAgQ4AAAABAh0AAAACBDoAAAAECHQAAAAIEOgAAAAQINABAAAgQKADAABAgEAHAACAAIEOAAAAAQIdAAAAAgQ6AAAABAh0AAAACBDoAAAAECDQAQAAIECgAwAAQIBABwAAgACBDgAAAAECHQAAAAIEOgAAAAQIdAAAAAgQ6AAAABAg0AEAACBAoAMAAECAQAcAAIAAgQ4AAAABAh0AAAACBDoAAAAECHQAAAAIEOgAAAAQINABAAAgQKADAABAgEAHAACAAIEOAAAAAQIdAAAAAgQ6AAAABAh0AAAACBDoAAAAECDQAQAAIECgAwAAQIBABwAAgACBDgAAAAECHQAAAAIEOgAAAAQIdAAAAAgQ6AAAABAg0AEAACBAoAMAAECAQAcAAICA/ekBsKQ7tw820xsmfPf6eju9Ycpaz/xXHx2v9sw/+PQn0xNgEYdPXk1PGPP1g4PpCSM+fHo9PQHYMS/oAAAAECDQAQAAIECgAwAAQIBABwAAgACBDgAAAAECHQAAAAIEOgAAAAQIdAAAAAgQ6AAAABAg0AEAACBAoAMAAECAQAcAAIAAgQ4AAAABAh0AAAACBDoAAAAECHQAAAAIEOgAAAAQINABAAAgQKADAABAgEAHAACAAIEOAAAAAQIdAAAAAgQ6AAAABAh0AAAACBDoAAAAECDQAQAAIECgAwAAQIBABwAAgACBDgAAAAECHQAAAAIEOgAAAAQIdAAAAAgQ6AAAABAg0AEAACBAoAMAAECAQAcAAIAAgQ4AAAABAh0AAAACBDoAAAAECHQAAAAIEOgAAAAQINABAAAgQKADAABAgEAHAACAAIEOAAAAAQIdAAAAAgQ6AAAABAh0AAAACBDoAAAAECDQAQAAIECgAwAAQIBABwAAgACBDgAAAAECHQAAAAIEOgAAAAQIdAAAAAgQ6AAAABAg0AEAACBAoAMAAECAQAcAAIAAgQ4AAAAB+9MDJp2dX22mN0w4PTnaTm+YstYzv3P7YJV/997e3t7Dx/dX+Xk/nB4w6OLyZnrCiLvHt6YnADt27+S96Qljnp+/mZ4Ai/CCDgAAAAECHQAAAAIEOgAAAAQIdAAAAAgQ6AAAABAg0AEAACBAoAMAAECAQAcAAIAAgQ4AAAABAh0AAAACBDoAAAAECHQAAAAIEOgAAAAQINABAAAgQKADAABAgEAHAACAAIEOAAAAAQIdAAAAAgQ6AAAABAh0AAAACBDoAAAAECDQAQAAIECgAwAAQIBABwAAgACBDgAAAAECHQAAAAIEOgAAAAQIdAAAAAgQ6AAAABAg0AEAACBAoAMAAECAQAcAAIAAgQ4AAAABAh0AAAACBDoAAAAECHQAAAAIEOgAAAAQINABAAAgQKADAABAgEAHAACAAIEOAAAAAQIdAAAAAgQ6AAAABAh0AAAACBDoAAAAECDQAQAAIECgAwAAQIBABwAAgACBDgAAAAECHQAAAAIEOgAAAAQIdAAAAAgQ6AAAABAg0AEAACBAoAMAAECAQAcAAIAAgQ4AAAABAh0AAAACBDoAAAAECHQAAAAIEOgAAAAQINABAAAgYLPdbqc3wGJOT45W+YE/O7/aTG+Y8vDx/VWe+c//+p/pCWMeH/nfM+vw66u30xOAHfvNH56v9jfcWvkVAwAAAAECHQAAAAIEOgAAAAQIdAAAAAgQ6AAAABAg0AEAACBAoAMAAECAQAcAAIAAgQ4AAAABAh0AAAACBDoAAAAECHQAAAAIEOgAAAAQINABAAAgQKADAABAgEAHAACAAIEOAAAAAQIdAAAAAgQ6AAAABAh0AAAACBDoAAAAECDQAQAAIECgAwAAQIBABwAAgACBDgAAAAECHQAAAAIEOgAAAAQIdAAAAAgQ6AAAABAg0AEAACBAoAMAAECAQAcAAIAAgQ4AAAABAh0AAAACBDoAAAAECHQAAAAIEOgAAAAQINABAAAgQKADAABAgEAHAACAAIEOAAAAAQIdAAAAAgQ6AAAABAh0AAAACBDoAAAAECDQAQAAIECgAwAAQIBABwAAgACBDgAAAAECHQAAAAIEOgAAAAQIdAAAAAgQ6AAAABAg0AEAACBAoAMAAECAQAcAAIAAgQ4AAAABAh0AAAACBDoAAAAECHQAAAAIEOgAAAAQsD89AJZ0dn61md4w4fTkaDu9gYV9dDi9YMyHT6+nJ8AyTt6bXjDm+fmb6Qkj7q34zGEtvKADAABAgEAHAACAAIEOAAAAAQIdAAAAAgQ6AAAABAh0AAAACBDoAAAAECDQAQAAIECgAwAAQIBABwAAgACBDgAAAAECHQAAAAIEOgAAAAQIdAAAAAgQ6AAAABAg0AEAACBAoAMAAECAQAcAAIAAgQ4AAAABAh0AAAACBDoAAAAECHQAAAAIEOgAAAAQINABAAAgQKADAABAgEAHAACAAIEOAAAAAQIdAAAAAgQ6AAAABAh0AAAACBDoAAAAECDQAQAAIECgAwAAQIBABwAAgACBDgAAAAECHQAAAAIEOgAAAAQIdAAAAAgQ6AAAABAg0AEAACBAoAMAAECAQAcAAIAAgQ4AAAABAh0AAAACBDoAAAAECHQAAAAIEOgAAAAQINABAAAgQKADAABAgEAHAACAAIEOAAAAAQIdAAAAAgQ6AAAABAh0AAAACBDoAAAAECDQAQAAIECgAwAAQIBABwAAgACBDgAAAAECHQAAAAIEOgAAAAQIdAAAAAjYbLfb6Q0AO/Pw8f3pCSMOn7xa7Zf71w8OpieMuHt8a3oCCzt88mp6Aizmi68uN9MbYAle0AEAACBAoAMAAECAQAcAAIAAgQ4AAAABAh0AAAACBDoAAAAECHQAAAAIEOgAAAAQINABAAAgQKADAABAgEAHAACAAIEOAAAAAQIdAAAAAgQ6AAAABAh0AAAACBDoAAAAECDQAQAAIECgAwAAQIBABwAAgACBDgAAAAECHQAAAAIEOgAAAAQIdAAAAAgQ6AAAABAg0AEAACBAoAMAAECAQAcAAIAAgQ4AAAABAh0AAAACBDoAAAAECHQAAAAIEOgAAAAQINABAAAgQKADAABAgEAHAACAAIEOAAAAAQIdAAAAAgQ6AAAABAh0AAAACBDoAAAAECDQAQAAIECgAwAAQIBABwAAgACBDgAAAAECHQAAAAIEOgAAAAQIdAAAAAgQ6AAAABAg0AEAACBAoAMAAECAQAcAAIAAgQ4AAAABAh0AAAACBDoAAAAECHQAAAAIEOgAAAAQINABAAAgQKADAABAgEAHAACAAIEOAAAAAQIdAAAAAjbb7XZ6AwDfs5/+9oPVfrnfPb41PWHKZnoAi1vtPb+4vJmeMOLlo2fuObzjvKADAABAgEAHAACAAIEOAAAAAQIdAAAAAgQ6AAAABAh0AAAACBDoAAAAECDQAQAAIECgAwAAQIBABwAAgACBDgAAAAECHQAAAAIEOgAAAAQIdAAAAAgQ6AAAABAg0AEAACBAoAMAAECAQAcAAIAAgQ4AAAABAh0AAAACBDoAAAAECHQAAAAIEOgAAAAQINABAAAgQKADAABAgEAHAACAAIEOAAAAAQIdAAAAAgQ6AAAABAh0AAAACBDoAAAAECDQAQAAIECgAwAAQIBABwAAgACBDgAAAAECHQAAAAIEOgAAAAQIdAAAAAgQ6AAAABAg0AEAACBAoAMAAECAQAcAAIAAgQ4AAAABAh0AAAACBDoAAAAECHQAAAAIEOgAAAAQINABAAAgQKADAABAgEAHAACAAIEOAAAAAQIdAAAAAgQ6AAAABAh0AAAACBDoAAAAECDQAQAAIECgAwAAQIBABwAAgACBDgAAAAECHQAAAAIEOgAAAAQIdAAAAAj4P/qGp6eg2h3MAAAAAElFTkSuQmCC;" vertex="1" parent="1">
          <mxGeometry x="1370" y="320" width="140" height="140" as="geometry" />
        </mxCell>
      </root>
    </mxGraphModel>
  </diagram>
</mxfile>
